<svg width="94" height="60" viewBox="0 0 94 60" fill="none" xmlns="http://www.w3.org/2000/svg">
<path d="M21.6148 32.3633C21.6148 32.3633 17.8112 38.9214 21.0401 39.2281C22.4601 39.3643 22.4601 36.69 22.4601 36.69C22.4601 36.69 21.9191 38.2571 20.871 37.8483C19.6877 37.3884 21.6148 32.3803 21.6148 32.3803V32.3633Z" fill="#296237"/>
<path d="M31.4707 30.8472C31.4707 30.8472 30.8283 27.8833 29.628 27.236C29.628 27.236 29.3406 27.7981 29.1885 27.7981C29.0363 27.7981 27.667 26.2991 28.394 25.5496C29.104 24.783 30.6423 26.3161 31.3861 28.3943C31.3861 28.3943 32.7554 24.5957 33.5331 24.5786C34.3276 24.5446 34.8517 26.248 34.8517 26.248C34.8517 26.248 33.7359 25.5155 33.4316 25.8732C33.1104 26.2139 31.8257 29.1268 31.5045 30.8472H31.4707Z" fill="#296237"/>
<path d="M81.0361 34.392L81.8645 32.7227C81.8645 32.7227 84.3157 34.6986 82.1857 39.6215C82.1857 39.6215 83.4028 34.9371 81.0361 34.392Z" fill="#296237"/>
<path d="M60.1084 22.6889L60.9367 21.0195C60.9367 21.0195 63.388 22.9955 61.2579 27.9184C61.2579 27.9184 62.4751 23.234 60.1084 22.6889Z" fill="#296237"/>
<path fill-rule="evenodd" clip-rule="evenodd" d="M60.6155 38.5294C64.1825 36.5364 66.397 34.6968 67.2761 32.9933C67.7156 32.4142 68.1213 31.9883 68.4763 31.6987C69.1187 32.5504 69.7273 32.5845 70.3021 31.7669C70.4204 31.6647 70.5218 31.4773 70.5726 31.1707C69.3554 31.341 68.7468 31.0685 68.7299 30.336C68.6961 28.4963 69.1187 27.6446 69.9809 27.6957C70.5049 27.6957 71.0121 27.7298 71.5531 27.8831C69.6259 28.5645 68.9835 29.1266 69.6597 29.5865C70.0992 29.7398 70.6909 29.7398 71.4685 29.5524C72.094 28.8711 72.7195 28.1045 73.3957 27.2188C73.3957 27.6957 73.3957 28.1727 73.3957 28.6667C72.5166 29.6887 71.8404 30.6597 71.384 31.5795C70.6064 33.0104 70.0316 33.6406 69.6597 33.4703C69.0511 33.4703 68.5271 33.3851 68.0368 33.2659C65.7885 36.5535 63.3203 38.291 60.5986 38.5124L60.6155 38.5294Z" fill="#296237"/>
<path d="M71.0824 13.4725C71.0824 13.4725 71.0147 13.5577 70.9302 13.6429C70.9302 13.6429 71.0147 13.1319 70.254 12.6208C69.713 12.2631 70.795 12.3824 70.795 12.3824L71.2176 12.5357C71.2176 12.5357 71.3697 13.0297 71.0824 13.4725Z" fill="#134520"/>
<path d="M67.1436 13.5926C67.1436 13.5926 66.8731 12.9112 66.1631 13.1667C66.6533 13.6948 66.8393 14.4954 66.8393 14.4954C66.8393 14.4954 67.2619 14.0354 67.1436 13.5926Z" fill="#134520"/>
<path d="M39.6038 21.2606C38.4373 11.2445 32.5713 3.56209 32.5713 3.56209C32.5713 3.56209 34.4646 1.7224 43.3059 2.31859C46.7546 2.55707 48.1239 2.4208 49.9665 2.09715C51.0315 1.90977 52.0796 1.55206 52.8911 2.45487C53.8885 3.56209 57.5737 6.74748 61.1745 8.58717C64.7753 10.4269 67.0574 12.2325 67.1251 13.6633C67.1251 13.6633 66.787 12.6583 64.6907 13.8167C62.9833 14.7535 60.8195 15.997 55.393 17.0872C50.761 18.0241 45.436 18.5522 39.5869 21.2606H39.6038Z" fill="url(#paint0_linear_63_36830)"/>
<path d="M61.1935 8.56897C59.5199 7.71726 57.8125 6.57597 56.3925 5.46875C56.1558 5.51985 55.9192 5.57095 55.6656 5.60502C53.8229 5.92867 49.0896 6.93369 45.624 6.69521C38.6254 6.21825 35.9882 7.27437 35.1768 7.73429C36.9011 10.9367 38.9635 15.7404 39.6059 21.2424C45.4381 18.534 50.78 17.9889 55.412 17.069C60.8385 15.9788 63.0023 14.7524 64.7097 13.7985C66.8229 12.6401 67.1441 13.6452 67.1441 13.6452C67.0595 12.1972 64.7943 10.3916 61.1935 8.56897Z" fill="url(#paint1_linear_63_36830)"/>
<path d="M35.1768 7.73429C36.1234 9.48881 37.1715 11.7373 38.0337 14.3095C42.953 12.555 47.3652 12.3335 51.2872 11.7714C56.3587 11.0389 58.438 9.94874 60.0609 9.11406C60.6356 8.82448 61.0752 8.70524 61.3964 8.67117C61.3287 8.6371 61.2611 8.60304 61.1935 8.56897C59.5199 7.71726 57.8125 6.57597 56.3925 5.46875C56.1558 5.51985 55.9192 5.57095 55.6656 5.60502C53.8229 5.92867 49.0895 6.93369 45.624 6.69521C38.6254 6.21825 35.9882 7.27437 35.1768 7.73429Z" fill="url(#paint2_linear_63_36830)"/>
<path d="M69.1885 9.21548C66.9908 7.37579 63.052 4.70143 62.3589 3.91786C60.5331 1.83969 61.1248 0 61.1248 0C61.1248 0 59.9753 0.698401 57.4057 1.60121C55.1743 2.38478 53.45 2.55512 53.0273 2.58919C54.16 3.84972 57.7269 6.79663 61.1755 8.55115C64.7425 10.3568 67.0078 12.1454 67.1261 13.5933C67.2444 14.0362 66.8218 14.4961 66.8218 14.4961C68.0559 14.9049 69.7125 13.0482 70.2704 12.7586C70.9466 12.4009 71.234 12.946 71.1495 13.2526C71.1326 13.3378 71.0819 13.457 71.0819 13.457C71.8088 12.486 71.2002 10.9189 69.1716 9.21548H69.1885Z" fill="url(#paint3_linear_63_36830)"/>
<path d="M47.8196 9.33317C47.8196 9.33317 44.54 7.52755 42.4269 6.62474C37.5752 4.54658 32.5713 3.55859 32.5713 3.55859C32.5713 3.55859 38.2345 11.2751 39.6038 21.2571C41.3281 20.4565 47.8196 9.33317 47.8196 9.33317Z" fill="#F10017"/>
<path style="mix-blend-mode:multiply" opacity="0.55" d="M39.6038 21.2606C38.4373 11.2445 32.5713 3.56209 32.5713 3.56209C32.5713 3.56209 34.4646 1.7224 43.3059 2.31859C46.7546 2.55707 48.1239 2.4208 49.9665 2.09715C51.0315 1.90977 52.0796 1.55206 52.8911 2.45487C53.8885 3.56209 57.5737 6.74748 61.1745 8.58717C64.7753 10.4269 67.0574 12.2325 67.1251 13.6633C67.1251 13.6633 66.787 12.6583 64.6907 13.8167C62.9833 14.7535 60.8195 15.997 55.393 17.0872C50.761 18.0241 45.436 18.5522 39.5869 21.2606H39.6038Z" fill="url(#paint4_linear_63_36830)"/>
<path d="M62.3591 3.91663C62.2407 3.78036 62.1224 3.64409 62.021 3.50781L56.3916 5.51784C57.8285 6.591 59.519 7.71525 61.1757 8.56696C61.7167 8.83951 62.2069 9.11205 62.6803 9.3846C63.7622 9.23129 66.0105 8.82247 67.532 7.91966C65.402 6.30142 62.8831 4.52986 62.3422 3.91663H62.3591Z" fill="url(#paint5_linear_63_36830)"/>
<path d="M57.1183 6.04713C58.2848 5.91085 60.8374 5.485 62.7308 4.27558C62.5617 4.1393 62.4434 4.02006 62.3589 3.91786C60.5331 1.83969 61.1248 0 61.1248 0C61.1248 0 59.9753 0.698401 57.4057 1.60121C55.1743 2.38478 53.45 2.55512 53.0273 2.58919C53.7035 3.3387 55.2419 4.68439 57.1183 6.03009V6.04713Z" fill="url(#paint6_linear_63_36830)"/>
<path d="M32.5284 2.98476L31.9961 3.20312L48.9056 45.0596L49.4379 44.8413L32.5284 2.98476Z" fill="url(#paint7_linear_63_36830)"/>
<path d="M32.6931 2.4502C32.8284 2.77385 32.6593 3.14861 32.3381 3.28488C32.0169 3.42115 31.645 3.25081 31.5098 2.92716C31.3746 2.60351 31.5436 2.22876 31.8648 2.09249C32.186 1.95621 32.5579 2.10952 32.6931 2.4502Z" fill="url(#paint8_linear_63_36830)"/>
<path d="M55.3786 38.6812C55.5307 35.9898 57.6607 31.5439 55.9702 30.2493C54.6516 29.2443 53.35 29.7723 53.164 29.6531C52.9781 29.5338 52.9612 29.2783 53.1302 29.0058C53.1302 29.0058 54.4995 26.0589 53.4683 24.3895C53.3838 24.2533 53.2993 24.134 53.1978 24.0318C53.3162 23.8104 53.5021 23.6911 53.5021 23.6911C53.2147 23.4015 52.268 23.3845 52.268 23.3845C52.268 23.3845 52.2511 23.3845 52.2342 23.3845C52.1497 23.3504 52.0652 23.3334 51.9807 23.3164C49.7323 22.8054 49.1406 24.3895 49.1406 24.3895C49.1406 24.3895 48.4644 25.0709 48.7687 26.7573C49.073 28.4437 50.3578 28.7332 50.3578 28.7332C50.4761 28.8695 50.5945 29.0058 50.7466 29.1421C50.8649 29.7212 50.9156 29.9256 50.9156 29.9256C50.9156 29.9256 50.1718 30.7433 48.6166 30.2834C47.0613 29.8405 44.2213 28.9377 44.2213 28.9377C44.2213 28.9377 43.3929 27.4046 42.9365 27.2002C42.497 27.0128 42.0743 27.2002 42.0743 27.2002C42.0743 27.2002 40.4684 27.8645 40.4008 28.1541C40.35 28.4266 41.1446 29.5509 41.4489 30.0278C41.7532 30.5048 42.0574 30.5559 42.666 30.4707C43.2746 30.3856 43.6634 30.4707 44.5594 31.118C45.4553 31.7653 49.0899 33.4176 49.0899 33.4176C49.0899 33.4176 51.034 34.4056 53.6374 33.6391C53.6543 33.6391 53.6712 33.622 53.705 33.605C53.705 33.605 51.7609 34.7293 49.1406 33.7413C49.2252 34.4056 49.4111 35.9728 49.4449 37.08C49.428 37.2844 49.2928 37.3866 49.0223 37.4377C48.7518 37.4888 47.1627 37.5569 47.1627 37.5569C47.1627 37.5569 46.4189 36.4497 45.9625 36.4838C45.523 36.5179 44.3058 36.9437 44.3396 37.2163C44.3734 37.4888 44.9313 38.8175 45.168 39.1241C45.4046 39.4307 45.9287 39.3115 46.3851 39.2604C46.8415 39.2093 46.9937 39.073 47.1797 39.1241C47.3656 39.1752 48.9885 38.9878 49.073 39.0389C49.1068 39.073 48.3968 42.9057 47.6192 47.0109H51.203L51.8961 44.3365L52.8259 47.0109H56.731C55.9364 44.0129 55.294 40.8786 55.3278 38.6471L55.3786 38.6812Z" fill="url(#paint9_linear_63_36830)"/>
<path d="M88.2363 53.6564C85.0581 53.6564 82.4717 51.0501 82.4717 47.8477C82.4717 44.6453 85.0581 42.0391 88.2363 42.0391C91.4144 42.0391 94.0009 44.6453 94.0009 47.8477C94.0009 51.0501 91.4144 53.6564 88.2363 53.6564ZM88.2363 45.7866C87.1036 45.7866 86.1908 46.7064 86.1908 47.8477C86.1908 48.989 87.1036 49.9088 88.2363 49.9088C89.3689 49.9088 90.2818 48.989 90.2818 47.8477C90.2818 46.7064 89.3689 45.7866 88.2363 45.7866Z" fill="#296237"/>
<path d="M88.2368 53.6577H82.2355C81.2043 53.6577 80.376 52.823 80.376 51.7839C80.376 50.7448 81.2043 49.9102 82.2355 49.9102H88.2368C89.268 49.9102 90.0963 50.7448 90.0963 51.7839C90.0963 52.823 89.268 53.6577 88.2368 53.6577Z" fill="#296237"/>
<path d="M38.4039 53.6584H38.3532C32.2843 53.6584 31.625 50.4049 31.625 49.0081C31.625 46.0442 35.1581 43.0121 37.677 42.1433C40.162 41.2916 43.0359 41.7345 44.8278 43.2505C46.3999 44.5792 47.0592 46.5892 46.7042 48.8889C45.9604 53.6244 40.703 53.6584 38.4039 53.6584ZM38.8772 45.6864C37.2205 46.2486 35.3441 48.2756 35.3441 48.9911C35.3441 49.8428 37.7784 49.8939 38.2687 49.8939C41.058 49.8939 42.7992 49.6213 43.019 48.2756C43.2556 46.8107 42.6301 46.2826 42.4273 46.1123C41.6327 45.4309 40.1282 45.2435 38.8772 45.6864Z" fill="#296237"/>
<path d="M38.2846 53.6577H32.2834C31.2522 53.6577 30.4238 52.823 30.4238 51.7839C30.4238 50.7448 31.2522 49.9102 32.2834 49.9102H38.2846C39.3158 49.9102 40.1442 50.7448 40.1442 51.7839C40.1442 52.823 39.3158 53.6577 38.2846 53.6577Z" fill="#296237"/>
<path d="M70.9101 53.6902C67.005 53.6902 64.3848 51.101 64.3848 47.2683V42.7372C64.3848 41.6982 65.2131 40.8635 66.2443 40.8635C67.2755 40.8635 68.1039 41.6982 68.1039 42.7372V47.2683C68.1039 49.0399 69.0505 49.9427 70.8932 49.9427C72.7358 49.9427 73.4627 49.1762 73.4627 47.2683V36.0769C73.4627 35.0378 74.2911 34.2031 75.3223 34.2031C76.3535 34.2031 77.1818 35.0378 77.1818 36.0769V47.2683C77.1818 51.2373 74.7644 53.6902 70.8763 53.6902H70.9101Z" fill="#296237"/>
<path d="M62.8294 53.69C60.1923 53.69 57.3691 52.0036 57.3691 47.2681V44.7641C57.3691 43.725 58.1975 42.8903 59.2287 42.8903C60.2599 42.8903 61.0882 43.725 61.0882 44.7641V47.2681C61.0882 49.9425 62.2716 49.9425 62.8294 49.9425C63.7761 49.9425 64.4016 48.8864 64.4016 47.2681V42.737C64.4016 41.698 65.2299 40.8633 66.2612 40.8633C67.2924 40.8633 68.1207 41.698 68.1207 42.737V47.2681C68.1207 51.4926 65.4497 53.69 62.8294 53.69Z" fill="#296237"/>
<path d="M55.763 53.659C53.1259 53.659 50.3027 51.9727 50.3027 47.2372V44.7331C50.3027 43.694 51.1311 42.8594 52.1623 42.8594C53.1935 42.8594 54.0218 43.694 54.0218 44.7331V47.2372C54.0218 49.9115 55.2052 49.9115 55.763 49.9115C56.7097 49.9115 57.3352 48.8554 57.3352 47.2372V45.2953C57.3352 44.2562 58.1635 43.4215 59.1947 43.4215C60.226 43.4215 61.0543 44.2562 61.0543 45.2953V47.2372C61.0543 51.4616 58.3833 53.659 55.763 53.659Z" fill="#296237"/>
<path d="M48.7147 53.6594H41.9865C40.9553 53.6594 40.127 52.8247 40.127 51.7856C40.127 50.7466 40.9553 49.9119 41.9865 49.9119H48.7147C49.6614 49.9119 50.2868 48.8558 50.2868 47.2375V45.2956C50.2868 44.2565 51.1152 43.4219 52.1464 43.4219C53.1776 43.4219 54.0059 44.2565 54.0059 45.2956V47.2375C54.0059 51.462 51.3349 53.6594 48.7147 53.6594Z" fill="#296237"/>
<path d="M18.8948 53.659C16.2576 53.659 13.6035 51.4446 13.6035 47.2372V44.7331C13.6035 43.694 14.4319 42.8594 15.4631 42.8594C16.4943 42.8594 17.3226 43.694 17.3226 44.7331V47.2372C17.3226 48.8554 17.9312 49.9115 18.8948 49.9115C18.9624 49.9115 21.5996 49.9115 21.8193 49.9115C22.3096 49.8945 23.4084 49.8434 23.4084 47.2372V44.7331C23.4084 43.694 24.2367 42.8594 25.2679 42.8594C26.2991 42.8594 27.1275 43.694 27.1275 44.7331V47.2372C27.1275 51.8023 24.4396 53.5568 21.9377 53.659C21.8024 53.659 19.0131 53.659 18.8948 53.659Z" fill="#296237"/>
<path d="M5.65747 53.659C3.02029 53.659 0.366211 51.4446 0.366211 47.2372V44.7331C0.366211 43.694 1.19455 42.8594 2.22576 42.8594C3.25696 42.8594 4.0853 43.694 4.0853 44.7331V47.2372C4.0853 48.8554 4.69388 49.9115 5.65747 49.9115C5.72509 49.9115 11.7433 49.9115 12.0137 49.9115C12.4871 49.8945 13.5859 49.8434 13.5859 47.2372V44.7331C13.5859 43.694 14.4142 42.8594 15.4454 42.8594C16.4767 42.8594 17.305 43.694 17.305 44.7331V47.2372C17.305 51.8023 14.6171 53.5568 12.1152 53.659C11.9799 53.659 6.29986 53.659 5.64056 53.659H5.65747Z" fill="#296237"/>
<path d="M43.3733 53.6594H29.4098C26.519 53.6594 23.3916 51.2065 23.3916 47.2375V45.2956C23.3916 44.2565 24.2199 43.4219 25.2511 43.4219C26.2824 43.4219 27.1107 44.2565 27.1107 45.2956V47.2375C27.1107 49.2305 28.6829 49.9119 29.4098 49.9119H43.3733C44.4045 49.9119 45.2328 50.7466 45.2328 51.7856C45.2328 52.8247 44.4045 53.6594 43.3733 53.6594Z" fill="#296237"/>
<path d="M82.2708 53.6594H79.5152C76.6245 53.6594 73.4971 51.2065 73.4971 47.2375V45.2956C73.4971 44.2565 74.3254 43.4219 75.3566 43.4219C76.3878 43.4219 77.2162 44.2565 77.2162 45.2956V47.2375C77.2162 49.2305 78.7883 49.9119 79.5152 49.9119H82.2708C83.302 49.9119 84.1303 50.7466 84.1303 51.7856C84.1303 52.8247 83.302 53.6594 82.2708 53.6594Z" fill="#296237"/>
<path d="M31.6222 52.874C30.591 52.874 29.7627 52.0393 29.7627 51.0002V36.0613C29.7627 35.0222 30.591 34.1875 31.6222 34.1875C32.6534 34.1875 33.4818 35.0222 33.4818 36.0613V51.0002C33.4818 52.0393 32.6534 52.874 31.6222 52.874Z" fill="#296237"/>
<path d="M88.3392 40.6447C89.3102 40.6447 90.0973 39.8515 90.0973 38.8731C90.0973 37.8947 89.3102 37.1016 88.3392 37.1016C87.3682 37.1016 86.5811 37.8947 86.5811 38.8731C86.5811 39.8515 87.3682 40.6447 88.3392 40.6447Z" fill="#296237"/>
<path d="M9.12335 40.6447C10.0943 40.6447 10.8815 39.8515 10.8815 38.8731C10.8815 37.8947 10.0943 37.1016 9.12335 37.1016C8.15237 37.1016 7.36523 37.8947 7.36523 38.8731C7.36523 39.8515 8.15237 40.6447 9.12335 40.6447Z" fill="#296237"/>
<path fill-rule="evenodd" clip-rule="evenodd" d="M19.9918 57.7637C19.9918 58.7347 19.1973 59.5353 18.2337 59.5353C17.2701 59.5353 16.4756 58.7347 16.4756 57.7637C16.4756 56.7928 17.2701 55.9922 18.2337 55.9922C19.1973 55.9922 19.9918 56.7928 19.9918 57.7637Z" fill="#296237"/>
<path d="M22.2757 59.5353C23.2467 59.5353 24.0338 58.7421 24.0338 57.7637C24.0338 56.7853 23.2467 55.9922 22.2757 55.9922C21.3047 55.9922 20.5176 56.7853 20.5176 57.7637C20.5176 58.7421 21.3047 59.5353 22.2757 59.5353Z" fill="#296237"/>
<defs>
<linearGradient id="paint0_linear_63_36830" x1="43.1538" y1="10.6653" x2="60.9159" y2="6.87125" gradientUnits="userSpaceOnUse">
<stop stop-color="#1E1E1E"/>
<stop offset="1" stop-color="#2B2B2B"/>
</linearGradient>
<linearGradient id="paint1_linear_63_36830" x1="48.7007" y1="11.4307" x2="65.7274" y2="6.49247" gradientUnits="userSpaceOnUse">
<stop stop-color="#15652F"/>
<stop offset="0.84" stop-color="#35A349"/>
<stop offset="0.87" stop-color="#319B46"/>
<stop offset="0.93" stop-color="#28883E"/>
<stop offset="0.99" stop-color="#1A6730"/>
<stop offset="1" stop-color="#18632F"/>
</linearGradient>
<linearGradient id="paint2_linear_63_36830" x1="56.3756" y1="4.65111" x2="41.0737" y2="11.2434" gradientUnits="userSpaceOnUse">
<stop stop-color="#E6E7E8"/>
<stop offset="0.39" stop-color="#BBBDBF"/>
<stop offset="0.5" stop-color="#AAACAE"/>
<stop offset="0.7" stop-color="#7F8183"/>
<stop offset="0.94" stop-color="#474A4C"/>
</linearGradient>
<linearGradient id="paint3_linear_63_36830" x1="63.4239" y1="7.40986" x2="69.7624" y2="4.5842" gradientUnits="userSpaceOnUse">
<stop stop-color="#15652F"/>
<stop offset="0.84" stop-color="#35A349"/>
<stop offset="0.87" stop-color="#319B46"/>
<stop offset="0.93" stop-color="#28883E"/>
<stop offset="0.99" stop-color="#1A6730"/>
<stop offset="1" stop-color="#18632F"/>
</linearGradient>
<linearGradient id="paint4_linear_63_36830" x1="49.8795" y1="8.56106" x2="55.4948" y2="0.884883" gradientUnits="userSpaceOnUse">
<stop stop-color="#4F4D4D"/>
<stop offset="0.04" stop-color="#5B5959"/>
<stop offset="0.11" stop-color="#7B7A7A"/>
<stop offset="0.18" stop-color="#9F9F9F"/>
<stop offset="0.27" stop-color="#9A9898"/>
<stop offset="0.33" stop-color="#949090"/>
<stop offset="0.4" stop-color="#9F9C9C"/>
<stop offset="0.54" stop-color="#C1C0C0"/>
<stop offset="0.61" stop-color="#BAB9B9"/>
<stop offset="0.69" stop-color="#A7A6A6"/>
<stop offset="0.79" stop-color="#888787"/>
<stop offset="0.91" stop-color="#5E5C5C"/>
<stop offset="0.94" stop-color="#4F4D4D"/>
</linearGradient>
<linearGradient id="paint5_linear_63_36830" x1="64.6243" y1="3.09899" x2="59.7075" y2="9.7236" gradientUnits="userSpaceOnUse">
<stop stop-color="#E6E7E8"/>
<stop offset="0.39" stop-color="#BBBDBF"/>
<stop offset="0.5" stop-color="#AAACAE"/>
<stop offset="0.7" stop-color="#7F8183"/>
<stop offset="0.94" stop-color="#474A4C"/>
</linearGradient>
<linearGradient id="paint6_linear_63_36830" x1="54.5488" y1="5.33169" x2="63.439" y2="0.398347" gradientUnits="userSpaceOnUse">
<stop stop-color="#1E1E1E"/>
<stop offset="1" stop-color="#2B2B2B"/>
</linearGradient>
<linearGradient id="paint7_linear_63_36830" x1="44.7756" y1="53.5619" x2="40.3656" y2="21.8533" gradientUnits="userSpaceOnUse">
<stop offset="0.04" stop-color="white"/>
<stop offset="0.39" stop-color="#BEBFC0"/>
<stop offset="1" stop-color="#474A4C"/>
</linearGradient>
<linearGradient id="paint8_linear_63_36830" x1="38.5423" y1="49.7711" x2="34.527" y2="20.9235" gradientUnits="userSpaceOnUse">
<stop offset="0.04" stop-color="white"/>
<stop offset="0.39" stop-color="#BEBFC0"/>
<stop offset="1" stop-color="#474A4C"/>
</linearGradient>
<linearGradient id="paint9_linear_63_36830" x1="50.8987" y1="49.3616" x2="47.8614" y2="24.9232" gradientUnits="userSpaceOnUse">
<stop offset="0.09" stop-color="white"/>
<stop offset="0.42" stop-color="#BEBFC0"/>
<stop offset="1" stop-color="#474A4C"/>
</linearGradient>
</defs>
</svg>
